<mxfile host="app.diagrams.net" modified="2024-05-08T13:32:22.293Z" agent="Mozilla/5.0 (Windows NT 10.0; Win64; x64) AppleWebKit/537.36 (KHTML, like Gecko) Chrome/124.0.0.0 Safari/537.36" etag="P5YtMobGX5S9tLkvMRph" version="24.3.1" type="github">
  <diagram name="Page-1" id="OYEZS4bDa4JbnokeYJgI">
    <mxGraphModel dx="1024" dy="522" grid="1" gridSize="10" guides="1" tooltips="1" connect="1" arrows="1" fold="1" page="1" pageScale="1" pageWidth="850" pageHeight="1100" math="0" shadow="0">
      <root>
        <mxCell id="0" />
        <mxCell id="1" parent="0" />
        <mxCell id="jvPHEjzjO5ynoDa686CO-7" value="Tipo documento" style="rounded=0;whiteSpace=wrap;html=1;" vertex="1" parent="1">
          <mxGeometry x="340" y="80" width="150" height="30" as="geometry" />
        </mxCell>
        <mxCell id="jvPHEjzjO5ynoDa686CO-8" value="Numero varchar 20" style="rounded=0;whiteSpace=wrap;html=1;align=left;" vertex="1" parent="1">
          <mxGeometry x="340" y="110" width="150" height="40" as="geometry" />
        </mxCell>
        <mxCell id="jvPHEjzjO5ynoDa686CO-9" value="Reconhecer documento" style="rounded=0;whiteSpace=wrap;html=1;align=left;" vertex="1" parent="1">
          <mxGeometry x="340" y="150" width="150" height="40" as="geometry" />
        </mxCell>
        <mxCell id="jvPHEjzjO5ynoDa686CO-10" value="CPF" style="rounded=0;whiteSpace=wrap;html=1;" vertex="1" parent="1">
          <mxGeometry x="190" y="240" width="150" height="30" as="geometry" />
        </mxCell>
        <mxCell id="jvPHEjzjO5ynoDa686CO-11" value="Cpf varchar 20" style="rounded=0;whiteSpace=wrap;html=1;align=left;" vertex="1" parent="1">
          <mxGeometry x="190" y="270" width="150" height="40" as="geometry" />
        </mxCell>
        <mxCell id="jvPHEjzjO5ynoDa686CO-12" value="Cadastrar como cpf" style="rounded=0;whiteSpace=wrap;html=1;align=left;" vertex="1" parent="1">
          <mxGeometry x="190" y="310" width="150" height="40" as="geometry" />
        </mxCell>
        <mxCell id="jvPHEjzjO5ynoDa686CO-13" value="CNPJ" style="rounded=0;whiteSpace=wrap;html=1;" vertex="1" parent="1">
          <mxGeometry x="520" y="240" width="150" height="30" as="geometry" />
        </mxCell>
        <mxCell id="jvPHEjzjO5ynoDa686CO-14" value="Cnpj varchar 20" style="rounded=0;whiteSpace=wrap;html=1;align=left;" vertex="1" parent="1">
          <mxGeometry x="520" y="270" width="150" height="40" as="geometry" />
        </mxCell>
        <mxCell id="jvPHEjzjO5ynoDa686CO-15" value="Cadastrar como cnpj" style="rounded=0;whiteSpace=wrap;html=1;align=left;" vertex="1" parent="1">
          <mxGeometry x="520" y="310" width="150" height="40" as="geometry" />
        </mxCell>
        <mxCell id="jvPHEjzjO5ynoDa686CO-16" value="" style="endArrow=none;html=1;rounded=0;entryX=0.5;entryY=0;entryDx=0;entryDy=0;exitX=0.25;exitY=1;exitDx=0;exitDy=0;" edge="1" parent="1" source="jvPHEjzjO5ynoDa686CO-9" target="jvPHEjzjO5ynoDa686CO-10">
          <mxGeometry width="50" height="50" relative="1" as="geometry">
            <mxPoint x="50" y="230" as="sourcePoint" />
            <mxPoint x="100" y="180" as="targetPoint" />
          </mxGeometry>
        </mxCell>
        <mxCell id="jvPHEjzjO5ynoDa686CO-17" value="" style="endArrow=none;html=1;rounded=0;exitX=0.75;exitY=1;exitDx=0;exitDy=0;entryX=0.5;entryY=0;entryDx=0;entryDy=0;" edge="1" parent="1" source="jvPHEjzjO5ynoDa686CO-9" target="jvPHEjzjO5ynoDa686CO-13">
          <mxGeometry width="50" height="50" relative="1" as="geometry">
            <mxPoint x="510" y="470" as="sourcePoint" />
            <mxPoint x="560" y="420" as="targetPoint" />
          </mxGeometry>
        </mxCell>
      </root>
    </mxGraphModel>
  </diagram>
</mxfile>
